<svg xmlns="http://www.w3.org/2000/svg" viewBox="0 0 564.7 191.28"><defs><style>.cls-1{fill:#24a2ad;}.cls-2{fill:#133b56;}</style></defs><g id="Layer_2" data-name="Layer 2"><g id="Layer_1-2" data-name="Layer 1"><path class="cls-1" d="M195.36,36.6c10.95,0,17.17,3.26,20.65,10.37,1,2.14.44,3.25-1.78,4.14l-7.4,3.18c-2,.89-2.81.6-4-1.55-1.4-2.81-4.07-3.85-7.47-3.85-5,0-7,1.26-7,3.85,0,3.18,4.36,3.85,9.69,4.51,8.59,1.19,19.69,3.26,19.69,17.25,0,10.88-9.84,16.87-23,16.87-11,0-18.72-3.77-21.53-11.47-.82-2.22-.15-3.25,2-4.07l7-2.51c2.22-.75,3.26-.52,4.37,1.62,1.33,2.59,4.22,3.93,8.36,3.93,5,0,7.92-1,7.92-4.22,0-2.89-3.77-3.7-8.66-4.37-8.66-1.18-20.8-2.74-20.8-17.1C173.37,43.41,181.22,36.6,195.36,36.6Z"/><path class="cls-1" d="M260.27,40.82v6.66c0,2.37-.81,3.19-3.18,3.19H237.55v6.58h15.62c2.37,0,3.18.82,3.18,3.11V67c0,2.37-.81,3.19-3.18,3.19H237.55v7.1h20.21c2.29,0,3.1.74,3.1,3.11v6.74c0,2.29-.81,3.1-3.1,3.1H226.08c-2.37,0-3.19-.81-3.19-3.1V40.82c0-2.29.82-3.11,3.19-3.11h31C259.46,37.71,260.27,38.53,260.27,40.82Z"/><path class="cls-1" d="M310.83,40.82V87.16c0,2.29-.81,3.1-3.11,3.1h-8.36a3.11,3.11,0,0,1-3-1.48l-11.4-17.54c-3.25-5.1-4.51-8.58-6.51-15.25h-.59c1.55,7.11,2.44,10.89,2.44,19.1V87.16c0,2.29-.81,3.1-3.18,3.1H269.6c-2.37,0-3.18-.81-3.18-3.1V40.82c0-2.29.81-3.11,3.18-3.11h8.74c1.7,0,2.44.45,3.1,1.48l12.14,19c3.26,5.11,3.85,7.92,6.22,13.55h.59C298,64.06,297.06,60.51,297.06,53V40.82c0-2.29.74-3.11,3.11-3.11h7.55C310,37.71,310.83,38.53,310.83,40.82Z"/><path class="cls-1" d="M358.35,40.82v6.66c0,2.37-.81,3.19-3.18,3.19h-11V87.16c0,2.29-.81,3.1-3.18,3.1h-8.36c-2.37,0-3.11-.81-3.11-3.1V50.67h-11c-2.37,0-3.11-.82-3.11-3.19V40.82c0-2.29.74-3.11,3.11-3.11h36.64C357.54,37.71,358.35,38.53,358.35,40.82Z"/><path class="cls-1" d="M365.83,37.71h8.74c2.21,0,2.95.74,2.95,3V87.3c0,2.23-.74,3-2.95,3h-8.74c-2.22,0-3-.73-3-3V40.67C362.87,38.45,363.61,37.71,365.83,37.71Z"/><path class="cls-1" d="M429.41,40.82V87.16c0,2.29-.81,3.1-3.11,3.1h-8.36a3.12,3.12,0,0,1-3-1.48L403.51,71.24C400.25,66.14,399,62.66,397,56h-.59c1.56,7.11,2.44,10.89,2.44,19.1V87.16c0,2.29-.81,3.1-3.18,3.1h-7.48c-2.36,0-3.18-.81-3.18-3.1V40.82c0-2.29.82-3.11,3.18-3.11h8.74c1.7,0,2.44.45,3.11,1.48l12.14,19c3.25,5.11,3.85,7.92,6.21,13.55h.6c-2.37-7.63-3.34-11.18-3.34-18.73V40.82c0-2.29.75-3.11,3.11-3.11h7.55C428.6,37.71,429.41,38.53,429.41,40.82Z"/><path class="cls-1" d="M474.2,40.82v6.66c0,2.37-.82,3.19-3.19,3.19H451.47v6.58h15.62c2.37,0,3.18.82,3.18,3.11V67c0,2.37-.81,3.19-3.18,3.19H451.47v7.1h20.21c2.29,0,3.11.74,3.11,3.11v6.74c0,2.29-.82,3.1-3.11,3.1H440c-2.37,0-3.18-.81-3.18-3.1V40.82c0-2.29.81-3.11,3.18-3.11h31C473.38,37.71,474.2,38.53,474.2,40.82Z"/><path class="cls-1" d="M495,40.82V77.31h17.84c2.29,0,3.11.74,3.11,3.11v6.74c0,2.29-.82,3.1-3.11,3.1H483.53c-2.37,0-3.19-.81-3.19-3.1V40.82c0-2.29.82-3.11,3.19-3.11h8.36C494.26,37.71,495,38.53,495,40.82Z"/><path class="cls-1" d="M540.82,36.6c10.95,0,17.17,3.26,20.65,10.37,1,2.14.44,3.25-1.78,4.14l-7.4,3.18c-2,.89-2.81.6-4-1.55-1.4-2.81-4.07-3.85-7.47-3.85-5,0-7,1.26-7,3.85,0,3.18,4.36,3.85,9.69,4.51,8.59,1.19,19.69,3.26,19.69,17.25,0,10.88-9.84,16.87-22.94,16.87-11,0-18.73-3.77-21.54-11.47-.82-2.22-.15-3.25,2-4.07l6.95-2.51c2.22-.75,3.26-.52,4.37,1.62,1.33,2.59,4.22,3.93,8.36,3.93,5,0,7.92-1,7.92-4.22,0-2.89-3.77-3.7-8.66-4.37-8.66-1.18-20.79-2.74-20.79-17.1C518.84,43.41,526.68,36.6,540.82,36.6Z"/><path class="cls-2" d="M194.08,106.43c12.84,0,20,7,20,18.26v11.73c0,11.28-7.17,18.26-20,18.26S174,147.7,174,136.42V124.69C174,113.41,181.17,106.43,194.08,106.43Zm0,11.41c-4.57,0-7.18,2.15-7.18,6.26V137c0,4.11,2.61,6.26,7.18,6.26s7.1-2.15,7.1-6.26V124.1C201.18,120,198.58,117.84,194.08,117.84Z"/><path class="cls-2" d="M257.71,110.15V116c0,2.09-.72,2.81-2.81,2.81H237.69v7.56h13.76c2.08,0,2.8.72,2.8,2.74V135c0,2.08-.72,2.8-2.8,2.8H237.69V151c0,2-.65,2.74-2.74,2.74h-7.37c-2.08,0-2.8-.72-2.8-2.74V110.15c0-2,.72-2.74,2.8-2.74H254.9C257,107.41,257.71,108.13,257.71,110.15Z"/><path class="cls-2" d="M302.1,106.43c10,0,16.3,4.11,19,11.41.65,1.89.2,2.87-1.76,3.52l-7,2.48c-2,.59-2.8.26-3.52-1.76-1.17-2.94-3.13-4.24-6.78-4.24-5.15,0-7.17,2.22-7.17,6.78v11.87c0,4.56,2,6.78,7.17,6.78,3.65,0,5.74-1.44,6.78-4.24.79-2,1.57-2.48,3.52-1.76l7,2.48c2,.65,2.41,1.63,1.76,3.52-2.74,7.3-9,11.41-19,11.41-12.84,0-20.08-7-20.08-18.26V124.69C282,113.41,289.26,106.43,302.1,106.43Z"/><path class="cls-2" d="M369.25,110.15V151c0,2-.71,2.74-2.73,2.74h-7.44c-2,0-2.74-.72-2.74-2.74V136H343.69v15c0,2-.65,2.74-2.73,2.74h-7.37c-2.09,0-2.81-.72-2.81-2.74V110.15c0-2.09.72-2.81,2.81-2.81H341c2.08,0,2.73.72,2.73,2.81v14.41h12.65V110.15c0-2.09.72-2.81,2.74-2.81h7.44C368.54,107.34,369.25,108.06,369.25,110.15Z"/><path class="cls-2" d="M420.43,153.7h-7c-3.39,0-4.37-.72-4.89-2.74l-1.5-4.69H392.92l-1.5,4.69c-.66,2-1.5,2.74-4.76,2.74h-6.85c-2,0-2.41-.91-1.76-2.67l15-41.34c.65-1.89,1.5-2.28,3.39-2.28h7.43c1.89,0,2.74.45,3.39,2.15L422.32,151C423,152.79,422.39,153.7,420.43,153.7Zm-20.21-34.43h-.65a34.83,34.83,0,0,1-1.24,9.07L395.91,136h8.16l-2.42-7.63A41.12,41.12,0,0,1,400.22,119.27Z"/><path class="cls-2" d="M470.17,110.15V151c0,2-.71,2.74-2.74,2.74h-7.36a2.76,2.76,0,0,1-2.68-1.3l-10-15.46c-2.87-4.49-4-7.56-5.74-13.43h-.52c1.37,6.26,2.15,9.59,2.15,16.83V151c0,2-.71,2.74-2.8,2.74h-6.58c-2.09,0-2.81-.72-2.81-2.74V110.15c0-2,.72-2.74,2.81-2.74h7.69a2.73,2.73,0,0,1,2.74,1.3L455,125.4c2.87,4.5,3.39,7,5.48,11.94H461c-2.09-6.72-2.94-9.85-2.94-16.5V110.15c0-2,.66-2.74,2.74-2.74h6.65C469.46,107.41,470.17,108.13,470.17,110.15Z"/><path class="cls-2" d="M520.89,129.9v8.61c0,9.19-7.17,16.17-20,16.17s-20.09-7-20.09-18.26V124.69c0-11.28,7.24-18.26,20.09-18.26,10,0,16.3,4.11,19,11.41.66,1.89.2,2.87-1.76,3.52l-7,2.48c-2,.65-2.81.26-3.52-1.76-1.18-2.94-3.13-4.24-6.78-4.24-5.16,0-7.18,2.22-7.18,6.78v11.87c0,4.56,2,6.78,7.18,6.78,4.36,0,7-1.63,7-4.43v-1.31h-6.26c-2,0-2.74-.65-2.74-2.74V129.9c0-2.08.72-2.8,2.74-2.8h16.49C520.24,127.1,520.89,127.82,520.89,129.9Z"/><path class="cls-2" d="M564.18,110.15V116c0,2.09-.72,2.81-2.8,2.81H544.16v5.8h13.76c2.09,0,2.8.72,2.8,2.74v5.87c0,2.08-.71,2.8-2.8,2.8H544.16v6.26H562c2,0,2.74.65,2.74,2.74V151c0,2-.72,2.74-2.74,2.74h-27.9c-2.09,0-2.81-.72-2.81-2.74V110.15c0-2,.72-2.74,2.81-2.74h27.32C563.46,107.41,564.18,108.13,564.18,110.15Z"/><path class="cls-2" d="M92.82,75.87A16.21,16.21,0,1,0,71.66,91.19v54.13h9.91V91.19A16.1,16.1,0,0,0,92.82,75.87Z"/><path class="cls-2" d="M145.94,87.48H110.45V81.29c0-17.17-15.17-31.15-33.82-31.15s-33.82,14-33.82,31.15v6.19H8V75.11H30.8C34,54,53.34,37.76,76.63,37.76S119.25,54,122.46,75.11h23.48Z"/><rect class="cls-2" x="70.39" y="5.76" width="12.47" height="38.19"/><path class="cls-1" d="M144,174.81a19.87,19.87,0,0,1-12.48-4.16c-2.18-1.48-3.61-2.46-7-2.46s-4.78,1-7,2.46a20.8,20.8,0,0,1-25,0c-2.17-1.48-3.61-2.46-7-2.46s-4.79,1-7,2.46a20.8,20.8,0,0,1-25,0c-2.17-1.48-3.61-2.46-7-2.46s-4.78,1-6.95,2.46a19.87,19.87,0,0,1-12.48,4.16,19.87,19.87,0,0,1-12.48-4.16c-2.18-1.48-3.61-2.46-7-2.46v-9.84a19.9,19.9,0,0,1,12.49,4.16c2.17,1.49,3.6,2.46,7,2.46s4.78-1,7-2.46a19.89,19.89,0,0,1,12.48-4.16,19.9,19.9,0,0,1,12.49,4.16c2.17,1.49,3.6,2.46,6.95,2.46s4.78-1,7-2.46a20.82,20.82,0,0,1,25,0c2.17,1.49,3.61,2.46,7,2.46s4.78-1,7-2.46a20.8,20.8,0,0,1,25,0c2.18,1.49,3.61,2.46,7,2.46Z"/><path class="cls-1" d="M146.69,153.55A20.46,20.46,0,0,1,134,149.38c-2.21-1.48-3.68-2.46-7.09-2.46s-4.88,1-7.09,2.46a21.52,21.52,0,0,1-25.46,0c-2.21-1.48-3.68-2.46-7.09-2.46s-4.87,1-7.09,2.46a20.44,20.44,0,0,1-12.73,4.17,20.43,20.43,0,0,1-12.72-4.17c-2.22-1.48-3.68-2.46-7.09-2.46s-4.88,1-7.09,2.46a20.46,20.46,0,0,1-12.73,4.17,20.46,20.46,0,0,1-12.73-4.17c-2.21-1.48-3.68-2.46-7.09-2.46v-9.84a20.46,20.46,0,0,1,12.73,4.17c2.22,1.48,3.68,2.46,7.09,2.46s4.88-1,7.09-2.46a20.46,20.46,0,0,1,12.73-4.17,20.43,20.43,0,0,1,12.72,4.17c2.22,1.48,3.68,2.46,7.09,2.46s4.88-1,7.1-2.46a21.5,21.5,0,0,1,25.45,0c2.22,1.48,3.68,2.46,7.09,2.46s4.88-1,7.09-2.46a21.52,21.52,0,0,1,25.46,0c2.21,1.48,3.68,2.46,7.09,2.46Z"/><polygon class="cls-2" points="109.85 65.17 101.13 56.33 133.22 25.14 141.95 33.98 109.85 65.17"/><polygon class="cls-2" points="42.94 65.26 13.29 37.62 21.83 28.6 51.48 56.24 42.94 65.26"/><polygon class="cls-2" points="47.71 37.56 42.2 26.54 53.37 21.04 58.88 32.05 47.71 37.56"/><polygon class="cls-2" points="106.5 37.25 95.3 31.8 100.48 21.31 111.68 26.76 106.5 37.25"/><polygon class="cls-2" points="128.64 70.91 123.75 59.52 134.85 54.83 139.74 66.21 128.64 70.91"/><polygon class="cls-2" points="23.38 70.59 12.09 65.4 17.34 54.17 28.62 59.37 23.38 70.59"/><path class="cls-2" d="M114.17,0H39.74A39.79,39.79,0,0,0,0,39.74V151.55a39.78,39.78,0,0,0,39.74,39.73h74.43a39.77,39.77,0,0,0,39.73-39.73V39.74A39.78,39.78,0,0,0,114.17,0Zm30.17,39.74V151.55a30.2,30.2,0,0,1-30.17,30.17H39.74A30.21,30.21,0,0,1,9.56,151.55V39.74A30.22,30.22,0,0,1,39.74,9.56h74.43A30.21,30.21,0,0,1,144.34,39.74Z"/></g></g></svg>